<svg width="12" height="12" viewBox="0 0 12 12" fill="none" xmlns="http://www.w3.org/2000/svg">
<path d="M2.62501 8.625C2.15527 8.6249 1.69416 8.49876 1.28978 8.25972C0.885404 8.02069 0.552579 7.67752 0.326026 7.26602C0.0994716 6.85453 -0.0125104 6.38977 0.0017614 5.92025C0.0160332 5.45072 0.156036 4.99363 0.407164 4.59665C0.658293 4.19967 1.01135 3.87735 1.42949 3.66332C1.84764 3.44929 2.31556 3.35138 2.78444 3.37981C3.25332 3.40825 3.70598 3.56198 4.0952 3.82497C4.48442 4.08797 4.79594 4.45059 4.99726 4.875H10.5L11.625 6L10.5 7.125L9.75001 6.375L9.00001 7.125L8.25001 6.375L7.50001 7.125L6.75001 6.375L6.00001 7.125H4.99726C4.78433 7.5739 4.44837 7.95315 4.02844 8.21868C3.60851 8.4842 3.12185 8.6251 2.62501 8.625V8.625ZM1.87501 6.75C2.07392 6.75 2.26469 6.67098 2.40534 6.53033C2.54599 6.38968 2.62501 6.19891 2.62501 6C2.62501 5.80109 2.54599 5.61032 2.40534 5.46967C2.26469 5.32902 2.07392 5.25 1.87501 5.25C1.6761 5.25 1.48533 5.32902 1.34468 5.46967C1.20403 5.61032 1.12501 5.80109 1.12501 6C1.12501 6.19891 1.20403 6.38968 1.34468 6.53033C1.48533 6.67098 1.6761 6.75 1.87501 6.75V6.75Z" fill="white"/>
</svg>
