<svg width="34" height="34" viewBox="0 0 34 34" fill="none" xmlns="http://www.w3.org/2000/svg">
<path d="M27.2079 24.3038L21.7946 21.5974C21.284 21.3418 20.9667 20.8284 20.9667 20.2572V18.3413C21.0964 18.1826 21.233 18.0019 21.3741 17.8024C22.0762 16.8107 22.6389 15.7069 23.048 14.5163C23.8476 14.1497 24.3667 13.3592 24.3667 12.4667V10.2C24.3667 9.6543 24.1627 9.1256 23.8 8.7125V5.6984C23.8317 5.38673 23.9564 3.53147 22.6145 2.0009C21.4506 0.6732 19.5619 0 17 0C14.4381 0 12.5494 0.6732 11.3855 2.00033C10.0436 3.5309 10.1683 5.38673 10.2 5.6984V8.7125C9.83734 9.1256 9.63334 9.6543 9.63334 10.2V12.4667C9.63334 13.1563 9.94671 13.7995 10.4816 14.2284C11.0007 16.2837 12.087 17.8324 12.4667 18.3294V20.2045C12.4667 20.753 12.1675 21.2562 11.6864 21.5192L6.63114 24.2766C4.98724 25.1736 3.96667 26.8929 3.96667 28.7651V30.6C3.96667 33.2894 12.4922 34 17 34C21.5078 34 30.0333 33.2894 30.0333 30.6V28.8756C30.0333 26.9274 28.9504 25.1753 27.2079 24.3038Z" fill="black"/>
</svg>
