<svg width="12" height="12" viewBox="0 0 12 12" fill="none" xmlns="http://www.w3.org/2000/svg">
<path d="M2.95316 2.49769C2.99549 2.38557 3.08024 2.27822 3.1716 2.19816C3.44545 1.95797 3.78426 1.8405 4.12724 1.73977C4.70788 1.56919 5.3039 1.4918 5.90666 1.45974C5.96446 1.45674 6.02188 1.4476 6.07949 1.44122C6.33787 1.44122 6.5961 1.44122 6.85438 1.44122C7.00701 1.45383 7.15973 1.46654 7.31231 1.479C7.9049 1.52775 8.48901 1.62113 9.05202 1.81866C9.30791 1.90843 9.55471 2.0184 9.76476 2.19577C9.79288 2.21954 9.8203 2.24447 9.84515 2.27147C10.0624 2.50697 10.0609 2.75129 9.83634 2.9806C9.62891 3.19252 9.36435 3.31036 9.09234 3.40993C8.57859 3.59775 8.04416 3.69179 7.50191 3.747C6.95962 3.80222 6.41629 3.81657 5.87207 3.78211C5.11509 3.73416 4.36654 3.63661 3.66248 3.33479C3.4814 3.25716 3.30895 3.14818 3.1521 3.02808C2.98406 2.89932 2.86945 2.71913 2.95316 2.49769ZM9.90135 8.53336C9.83151 8.50261 9.76706 8.51494 9.70293 8.56121C9.6014 8.63433 9.49982 8.71065 9.38868 8.76647C9.08235 8.92027 8.75277 9.0076 8.41949 9.08143C7.67048 9.24732 6.91077 9.28421 6.14699 9.26349C5.51948 9.24643 4.89529 9.19557 4.28423 9.04233C3.9134 8.94933 3.55115 8.83205 3.25209 8.57813C3.18487 8.52104 3.11352 8.49708 3.03173 8.5336C2.94787 8.57105 2.92546 8.64329 2.92602 8.73075C2.92813 9.04425 2.93531 9.35813 2.92424 9.67121C2.9166 9.88702 3.00515 10.0431 3.16574 10.171C3.35329 10.3203 3.56812 10.4181 3.79162 10.4978C4.37456 10.7057 4.98046 10.7977 5.5941 10.8488C5.75587 10.8623 5.91782 10.8744 6.07959 10.8871C6.33791 10.8871 6.5962 10.8871 6.85448 10.8871C6.88124 10.882 6.90796 10.8746 6.93506 10.8721C7.28662 10.8392 7.63963 10.8181 7.98937 10.7721C8.46224 10.7101 8.92851 10.6082 9.36276 10.4047C9.53554 10.3238 9.69416 10.2083 9.84796 10.0932C9.94527 10.0205 10.0037 9.90751 10.0051 9.78127C10.0089 9.4186 10.0072 9.05588 10.0068 8.69316C10.0064 8.61816 9.96843 8.56304 9.90135 8.53336ZM9.89685 6.17588C9.84796 6.15427 9.75641 6.16041 9.71868 6.19411C9.51529 6.37519 9.27009 6.4703 9.02005 6.55463C8.38682 6.76852 7.73146 6.86672 7.06668 6.89349C6.16232 6.92977 5.26012 6.90436 4.37245 6.70116C3.95746 6.60619 3.55396 6.48038 3.22181 6.19355C3.16377 6.14339 3.09093 6.14129 3.02235 6.17672C2.95654 6.21075 2.92668 6.26799 2.92682 6.34261C2.92738 6.68372 2.92884 7.02497 2.92612 7.36608C2.92504 7.49986 2.96718 7.61541 3.06065 7.70729C3.13241 7.77788 3.20723 7.85349 3.29545 7.89746C3.51159 8.00513 3.72965 8.11608 3.95859 8.1894C4.77412 8.45025 5.61852 8.5134 6.71662 8.52863C6.98474 8.50435 7.4998 8.4714 8.01102 8.40769C8.47738 8.34952 8.9376 8.24461 9.36552 8.04193C9.53531 7.96154 9.69173 7.84885 9.84379 7.73668C9.93913 7.66641 10.0011 7.55743 10.003 7.43541C10.0086 7.06364 10.0098 6.69169 10.0014 6.31997C10.0003 6.26916 9.94504 6.1973 9.89685 6.17588ZM3.25982 5.51569C3.55443 5.70863 3.88265 5.81836 4.2194 5.90532C4.95609 6.0954 5.70824 6.15436 6.63763 6.16421C6.8286 6.1523 7.19123 6.13833 7.55207 6.105C8.10988 6.05335 8.65949 5.95491 9.18693 5.75775C9.42388 5.66921 9.65184 5.56261 9.83788 5.38468C9.92676 5.29974 10.0009 5.20022 10.0029 5.07479C10.009 4.70293 10.0098 4.33074 10.0016 3.95893C10.0004 3.90807 9.94532 3.8363 9.89709 3.81479C9.8482 3.79308 9.75656 3.79871 9.71877 3.83208C9.51248 4.01452 9.26516 4.11202 9.0112 4.19593C8.28407 4.43616 7.53327 4.52968 6.77099 4.54177C5.96123 4.55461 5.15427 4.52222 4.36148 4.33754C3.95277 4.24233 3.55471 4.11807 3.22706 3.83616C3.16846 3.78577 3.09791 3.7785 3.02835 3.81221C2.95846 3.84596 2.92616 3.90483 2.9264 3.98368C2.92738 4.29108 2.93877 4.59914 2.92359 4.90585C2.90962 5.18705 3.03932 5.37127 3.25982 5.51569Z" fill="white"/>
</svg>
