<svg width="128" height="170" viewBox="0 0 128 170" fill="none" xmlns="http://www.w3.org/2000/svg">
<rect width="64" height="170" fill="#F9A926"/>
<rect x="64" width="64" height="170" fill="#FFC033"/>
<g clip-path="url(#clip0_3_385)">
<path d="M64 46.4C49.9007 46.4 36.6317 40.895 26.6352 30.9C25.005 29.2713 25.005 26.6285 26.6352 24.9983C28.263 23.368 30.9067 23.368 32.537 24.9983C40.9575 33.416 52.1302 38.0528 64.0002 38.0528C75.8702 38.0528 87.043 33.416 95.4635 24.9983C97.0937 23.368 99.7375 23.368 101.365 24.9983C102.995 26.6285 102.995 29.2708 101.365 30.9C91.3682 40.895 78.0992 46.4 64 46.4Z" fill="#FFC033"/>
<path d="M101.365 30.9C102.995 29.2713 102.995 26.6285 101.365 24.9983C99.737 23.368 97.0932 23.368 95.463 24.9983C87.0425 33.416 75.8698 38.0528 64 38.0528V46.4C78.0992 46.4 91.3683 40.895 101.365 30.9Z" fill="#F9A926"/>
<path d="M107.127 141H20.8735C13.9693 141 8.35303 135.384 8.35303 128.48V58.9205C8.35303 56.615 10.221 54.747 12.5265 54.747H115.474C117.779 54.747 119.647 56.615 119.647 58.9205V128.479C119.647 135.384 114.031 141 107.127 141Z" fill="#F26D76"/>
<path d="M115.474 54.747H64V141H107.127C114.031 141 119.647 135.384 119.647 128.48V58.9205C119.647 56.615 117.779 54.747 115.474 54.747Z" fill="#E65C64"/>
<path d="M119.647 63.0935H8.35248V71.4405H119.647V63.0935Z" fill="#D5565D"/>
<path d="M119.647 63.0935H63.9998V71.4405H119.647V63.0935Z" fill="#BC4B52"/>
<path d="M79.6685 15.381C74.8835 11.9345 68.4642 12.2408 64.0002 16.2498C59.554 12.2573 53.1387 11.9148 48.3317 15.381C41.306 20.448 41.3442 31.593 48.5192 36.572L61.6227 45.6568C62.1937 46.0538 63.1572 46.4 64.0002 46.4C64.7142 46.4 65.6702 46.1488 66.3777 45.6568L79.4827 36.5708C86.6915 31.569 86.6592 20.423 79.6685 15.381ZM53.213 22.1538C55.9752 20.1623 59.8267 22.1448 59.8267 25.5393V34.2545L53.2757 29.7128C50.816 28.0078 50.8647 23.8445 53.213 22.1538ZM74.726 29.7113L68.1735 34.2543V25.5393C68.1735 22.1385 72.03 20.1663 74.7872 22.1538C77.1865 23.8813 77.1265 28.048 74.726 29.7113Z" fill="#FFC033"/>
<path d="M66.3775 45.6567L79.4825 36.5707C86.6915 31.569 86.6592 20.4227 79.6687 15.3812C74.8837 11.9347 68.4645 12.241 64.0005 16.25V46.4C64.714 46.4 65.67 46.149 66.3775 45.6567ZM68.1735 25.5392C68.1735 22.1385 72.03 20.1662 74.7872 22.1537C77.1865 23.8815 77.1267 28.0482 74.726 29.7115L68.1735 34.2545V25.5392Z" fill="#F9A926"/>
<path d="M123.82 63.094H4.17924C1.87424 63.094 0.0057373 61.2252 0.0057373 58.9205V46.4C0.0057373 41.79 3.74274 38.053 8.35274 38.053H119.647C124.257 38.053 127.994 41.79 127.994 46.4V58.9205C127.994 61.2257 126.125 63.094 123.82 63.094Z" fill="#36D9D9"/>
<path d="M119.647 38.0527H64V63.094H123.821C126.126 63.094 127.994 61.2252 127.994 58.9205V46.4C127.994 41.79 124.257 38.0527 119.647 38.0527Z" fill="#43BFBF"/>
<path d="M55.653 37.4963C55.653 38.3035 55.653 139.248 55.653 141H72.3473C72.3473 139.061 72.3473 38.614 72.3473 37.4963C72.347 37.4963 55.653 37.4963 55.653 37.4963Z" fill="#FFC033"/>
<path d="M72.347 37.4963H64C64 40.1495 64 139.967 64 141H72.347V37.4963Z" fill="#F9A926"/>
</g>
<defs>
<clipPath id="clip0_3_385">
<rect width="128" height="128" fill="white" transform="translate(0 13)"/>
</clipPath>
</defs>
</svg>
