<svg width="136" height="136" viewBox="0 0 136 136" fill="none" xmlns="http://www.w3.org/2000/svg">
<g clip-path="url(#clip0_32_183)">
<path d="M126.621 136H9.37931C6.7892 136 4.6897 133.901 4.6897 131.31V56.2759C4.6897 53.6857 6.7892 51.5862 9.37931 51.5862H126.621C129.211 51.5862 131.31 53.6857 131.31 56.2759V131.31C131.31 133.9 129.211 136 126.621 136Z" fill="#EFF2FA"/>
<path d="M56.2758 128.965H14.0691C12.7741 128.965 11.7241 127.915 11.7241 126.621V65.6551C11.7241 64.3601 12.7741 63.3101 14.0691 63.3101H56.2761C57.571 63.3101 58.621 64.3601 58.621 65.6551V126.621C58.6208 127.916 57.5707 128.965 56.2758 128.965Z" fill="#51ABFF"/>
<path d="M35.1724 69.2413C13.3404 69.2413 15.761 95.7905 15.8606 115.03C15.8643 115.757 16.245 116.412 16.8673 116.787C19.2867 118.246 25.9307 121.655 35.1724 121.655C44.414 121.655 51.0581 118.246 53.4774 116.787C54.0997 116.412 54.4804 115.757 54.4841 115.03C54.5837 95.791 57.0044 69.2413 35.1724 69.2413Z" fill="#694B4B"/>
<path d="M33.7657 69.296C13.461 70.4345 15.7632 96.2187 15.8607 115.03C15.8644 115.756 16.2451 116.412 16.8674 116.787C19.2867 118.245 25.9308 121.655 35.1724 121.655L40.6897 83.0344" fill="#5A4146"/>
<path d="M35.1724 69.2413C22.7587 69.2413 21.8965 84.2411 21.8965 84.2411C29.0516 83.0341 33.4482 86.0514 40.6897 83.0341L35.1724 121.655C44.4143 121.655 51.0581 118.246 53.4774 116.787C54.0998 116.412 54.4804 115.757 54.4842 115.03C54.5838 95.791 57.0044 69.2413 35.1724 69.2413Z" fill="#694B4B"/>
<path d="M54.4842 115.03C54.5697 98.498 56.3544 76.5842 43.0068 70.7399C42.7741 71.9493 42.3523 75.3254 43.4483 77.5171C46.207 83.0344 48.9656 83.0344 51.7241 87.1723C54.4828 102.345 46.4533 118.449 43.7861 120.641C48.5113 119.517 51.8983 117.739 53.4772 116.787C54.0996 116.412 54.4802 115.757 54.4842 115.03Z" fill="#785550"/>
<path d="M56.0742 119.215L43.7665 114.087C42.7385 113.659 42.0689 112.654 42.0689 111.54V108.207H28.276V111.54C28.276 112.654 27.6064 113.658 26.5784 114.087L14.2707 119.215C12.7287 119.857 11.7241 121.364 11.7241 123.035V126.621C11.7241 127.916 12.7741 128.966 14.0691 128.966H56.2761C57.571 128.966 58.621 127.916 58.621 126.621V123.035C58.6208 121.364 57.6162 119.857 56.0742 119.215Z" fill="#E6AF78"/>
<path d="M56.0742 119.215L44.1742 114.256L35.1724 118.141L26.1707 114.256L14.2707 119.215C12.7287 119.857 11.7241 121.364 11.7241 123.035V126.621C11.7241 127.916 12.7741 128.966 14.0691 128.966H56.2761C57.571 128.966 58.621 127.916 58.621 126.621V123.035C58.6208 121.364 57.6162 119.857 56.0742 119.215Z" fill="#707487"/>
<path d="M42.069 108.207H28.2762V111.54C28.2762 112.654 27.6065 113.658 26.5786 114.086L24.6565 114.888C39.3663 118.638 42.069 108.207 42.069 108.207Z" fill="#D29B6E"/>
<path d="M18.4471 124.551L12.9107 120.147C12.1688 120.906 11.7241 121.931 11.7241 123.035V126.621C11.7241 127.916 12.7741 128.966 14.0691 128.966H19.9999V127.77C19.9999 126.517 19.4283 125.331 18.4471 124.551Z" fill="#5B5D6E"/>
<path d="M58.6208 126.621V123.035C58.6208 121.94 58.1835 120.921 57.4523 120.164L51.8981 124.551C50.9166 125.336 50.3452 126.525 50.3452 127.782V128.965H56.2761C57.5707 128.965 58.6208 127.916 58.6208 126.621Z" fill="#5B5D6E"/>
<path d="M35.3793 126.621H34.9654C34.3178 126.621 33.793 126.096 33.793 125.448V118.145H36.5517V125.448C36.5517 126.096 36.0266 126.621 35.3793 126.621Z" fill="#5B5D6E"/>
<path d="M35.1725 118.142L27.2782 112.221C26.7713 111.841 26.0494 111.964 25.698 112.491L24.1379 114.831L28.9779 121.607C29.3458 122.122 30.0709 122.223 30.565 121.828L35.1725 118.142Z" fill="#5B5D6E"/>
<path d="M35.1724 118.142L43.0667 112.221C43.5736 111.841 44.2955 111.964 44.6469 112.491L46.207 114.831L41.367 121.607C40.9991 122.122 40.274 122.223 39.7799 121.828L35.1724 118.142Z" fill="#5B5D6E"/>
<path d="M42.0688 81.655C35.1724 88.5514 21.6377 83.0344 21.6377 94.069L22.4941 102.197C22.6593 104.015 23.7133 105.634 25.3092 106.521L33.1626 110.884C34.4124 111.578 35.9318 111.578 37.1815 110.884L45.035 106.521C46.6309 105.634 47.6849 104.015 47.8501 102.197L48.8388 92.5438C48.9092 91.8576 48.924 91.1673 48.9009 90.4788C48.3851 86.9675 43.4482 84.4138 42.0688 81.655Z" fill="#F0C087"/>
<path d="M21.6382 94.069L22.4946 102.197C22.6598 104.015 23.7138 105.634 25.3097 106.521L33.1631 110.884C34.0304 111.365 35.0249 111.49 35.9716 111.303C35.9716 111.303 32.0122 110.103 29.6555 103.724C28.9336 101.77 27.9316 91.4252 28.7936 90.1608C30.4973 87.6618 40.0003 87.402 42.8082 82.7661C42.6696 82.594 42.5413 82.4216 42.4247 82.2489C42.4154 82.2351 42.404 82.221 42.3944 82.207C42.2725 82.0234 42.162 81.8396 42.0693 81.655C35.1726 88.5519 21.6382 83.0344 21.6382 94.069Z" fill="#E6AF78"/>
<path d="M107.862 72.6896H70.3449C69.05 72.6896 68 71.6396 68 70.3447C68 69.0497 69.05 67.9997 70.3449 67.9997H107.862C109.157 67.9997 110.207 69.0497 110.207 70.3447C110.207 71.6399 109.157 72.6896 107.862 72.6896Z" fill="#51ABFF"/>
<path d="M119.586 82.0691H70.3449C69.05 82.0691 68 81.0191 68 79.7241C68 78.4292 69.05 77.3792 70.3449 77.3792H119.586C120.881 77.3792 121.931 78.4292 121.931 79.7241C121.931 81.0191 120.881 82.0691 119.586 82.0691Z" fill="#51ABFF"/>
<path d="M75.0345 103.172H70.3449C69.05 103.172 68 102.122 68 100.828C68 99.5326 69.05 98.4826 70.3449 98.4826H75.0345C76.3295 98.4826 77.3795 99.5326 77.3795 100.828C77.3792 102.122 76.3295 103.172 75.0345 103.172Z" fill="#959CB3"/>
<path d="M112.552 103.172H84.4138C83.1189 103.172 82.0688 102.122 82.0688 100.828C82.0688 99.5326 83.1189 98.4826 84.4138 98.4826H112.552C113.847 98.4826 114.897 99.5326 114.897 100.828C114.897 102.122 113.847 103.172 112.552 103.172Z" fill="#C7CFE2"/>
<path d="M75.0345 112.552H70.3449C69.05 112.552 68 111.502 68 110.207C68 108.912 69.05 107.862 70.3449 107.862H75.0345C76.3295 107.862 77.3795 108.912 77.3795 110.207C77.3792 111.502 76.3295 112.552 75.0345 112.552Z" fill="#959CB3"/>
<path d="M119.586 112.552H84.4138C83.1189 112.552 82.0688 111.502 82.0688 110.207C82.0688 108.912 83.1189 107.862 84.4138 107.862H119.586C120.881 107.862 121.931 108.912 121.931 110.207C121.931 111.502 120.881 112.552 119.586 112.552Z" fill="#C7CFE2"/>
<path d="M75.0345 121.931H70.3449C69.05 121.931 68 120.881 68 119.586C68 118.291 69.05 117.241 70.3449 117.241H75.0345C76.3295 117.241 77.3795 118.291 77.3795 119.586C77.3792 120.881 76.3295 121.931 75.0345 121.931Z" fill="#959CB3"/>
<path d="M103.172 121.931H84.4138C83.1189 121.931 82.0688 120.881 82.0688 119.586C82.0688 118.291 83.1189 117.241 84.4138 117.241H103.172C104.467 117.241 105.517 118.291 105.517 119.586C105.517 120.881 104.467 121.931 103.172 121.931Z" fill="#C7CFE2"/>
<path d="M72.6897 53.9309H63.3105C62.0156 53.9309 60.9656 52.8809 60.9656 51.586C60.9656 50.291 62.0156 49.241 63.3105 49.241H72.6897C73.9847 49.241 75.0347 50.291 75.0347 51.586C75.0347 52.8811 73.9847 53.9309 72.6897 53.9309Z" fill="#959CB3"/>
</g>
<defs>
<clipPath id="clip0_32_183">
<rect width="136" height="136" fill="white"/>
</clipPath>
</defs>
</svg>
