<svg width="12" height="12" viewBox="0 0 12 12" fill="none" xmlns="http://www.w3.org/2000/svg">
<path d="M10.9939 2.47913H1.00597C0.450475 2.47913 0 2.9297 0 3.4851V8.51484C0 9.07033 0.450475 9.52091 1.00597 9.52091H10.9939C11.5494 9.52091 12 9.07033 12 8.51484V3.4851C12 2.9297 11.5494 2.47913 10.9939 2.47913ZM0.779031 8.90739V3.17911H11.1371V8.9075H0.779031V8.90739Z" fill="white"/>
<path d="M1.78497 7.9014H10.1314V4.18506H1.78497V7.9014ZM6.00003 4.67398C6.75638 4.67398 7.36938 5.28718 7.36938 6.04333C7.36938 6.79979 6.75649 7.41259 6.00003 7.41259C5.24356 7.41259 4.63077 6.79979 4.63077 6.04333C4.63077 5.28718 5.24367 4.67398 6.00003 4.67398Z" fill="white"/>
</svg>
