<svg width="14" height="14" viewBox="0 0 14 14" fill="none" xmlns="http://www.w3.org/2000/svg">
<path d="M3.06246 10.0625C2.51443 10.0624 1.97647 9.91522 1.5047 9.63634C1.03293 9.35747 0.64463 8.95711 0.380317 8.47703C0.116004 7.99695 -0.0146412 7.45473 0.00200919 6.90696C0.0186596 6.35918 0.181996 5.8259 0.474979 5.36276C0.767963 4.89962 1.17986 4.52358 1.6677 4.27387C2.15553 4.02417 2.70144 3.90994 3.24847 3.94312C3.7955 3.97629 4.3236 4.15564 4.77769 4.46247C5.23178 4.76929 5.59522 5.19235 5.83009 5.6875H12.25L13.5625 7L12.25 8.3125L11.375 7.4375L10.5 8.3125L9.62496 7.4375L8.74996 8.3125L7.87496 7.4375L6.99996 8.3125H5.83009C5.58167 8.83621 5.18972 9.27867 4.6998 9.58845C4.20988 9.89824 3.64211 10.0626 3.06246 10.0625V10.0625ZM2.18746 7.875C2.41953 7.875 2.64209 7.78281 2.80618 7.61872C2.97028 7.45462 3.06246 7.23207 3.06246 7C3.06246 6.76794 2.97028 6.54538 2.80618 6.38128C2.64209 6.21719 2.41953 6.125 2.18746 6.125C1.9554 6.125 1.73284 6.21719 1.56874 6.38128C1.40465 6.54538 1.31246 6.76794 1.31246 7C1.31246 7.23207 1.40465 7.45462 1.56874 7.61872C1.73284 7.78281 1.9554 7.875 2.18746 7.875V7.875Z" fill="white"/>
</svg>
