<svg width="132" height="47" viewBox="0 0 132 47" fill="none" xmlns="http://www.w3.org/2000/svg">
<path d="M66.598 31V19.626H62.088V15.6H76.3V19.626H71.79V31H66.598ZM84.1605 21.32H91.0245V25.06H84.1605V21.32ZM84.5125 27.084H92.2125V31H79.4085V15.6H91.9265V19.516H84.5125V27.084ZM95.9713 31V15.6H103.385C104.823 15.6 106.062 15.8347 107.103 16.304C108.159 16.7733 108.973 17.448 109.545 18.328C110.117 19.1933 110.403 20.22 110.403 21.408C110.403 22.596 110.117 23.6227 109.545 24.488C108.973 25.3387 108.159 25.9913 107.103 26.446C106.062 26.9007 104.823 27.128 103.385 27.128H98.8533L101.163 24.994V31H95.9713ZM105.189 31L101.405 25.39H106.905L110.733 31H105.189ZM101.163 25.566L98.8533 23.212H103.055C103.774 23.212 104.302 23.0507 104.639 22.728C104.991 22.4053 105.167 21.9653 105.167 21.408C105.167 20.8507 104.991 20.4107 104.639 20.088C104.302 19.7653 103.774 19.604 103.055 19.604H98.8533L101.163 17.25V25.566ZM112.452 31L119.184 15.6H124.288L131.02 31H125.652L120.68 18.064H122.704L117.732 31H112.452ZM116.456 28.316L117.776 24.576H124.86L126.18 28.316H116.456Z" fill="white"/>
<path fill-rule="evenodd" clip-rule="evenodd" d="M36.9282 28.4132C38.6792 31.7894 37.8197 35.9311 34.8697 38.3316C31.9198 40.7321 27.6899 40.7321 24.74 38.3316C21.7901 35.9311 20.9305 31.7894 22.6815 28.4132L16.9269 22.6586C14.7302 23.2441 12.3879 22.8597 10.4936 21.6028L3.43902 28.6586L0 25.2195L7.42485 17.7947C6.0147 14.1564 7.42617 10.0311 10.7695 8.0192C14.1129 6.00732 18.4189 6.69213 20.9731 9.64194C23.5274 12.5918 23.5895 16.9514 21.1202 19.9727L26.1217 24.9742C28.4311 23.773 31.181 23.773 33.4904 24.9742L43.561 14.9025L47 18.3415L36.9282 28.4132Z" fill="white"/>
<path fill-rule="evenodd" clip-rule="evenodd" d="M14.9024 11.4634C16.8018 11.4634 18.3415 13.0031 18.3415 14.9024C18.3415 16.8017 16.8018 18.3414 14.9024 18.3414C13.0031 18.3414 11.4634 16.8017 11.4634 14.9024C11.4634 13.0031 13.0031 11.4634 14.9024 11.4634ZM29.8049 28.6585C31.7042 28.6585 33.2439 30.1982 33.2439 32.0975C33.2439 33.9968 31.7042 35.5366 29.8049 35.5366C27.9056 35.5366 26.3659 33.9968 26.3659 32.0975C26.3659 30.1982 27.9056 28.6585 29.8049 28.6585Z" fill="#001D1F"/>
</svg>
