<svg width="14" height="14" viewBox="0 0 14 14" fill="none" xmlns="http://www.w3.org/2000/svg">
<path d="M12.9219 1.75146H1.07806C0.484388 1.75146 0 2.23585 0 2.82952V11.1705C0 11.7641 0.484388 12.2485 1.07806 12.2485H12.9219C13.5156 12.2485 14 11.7641 14 11.1705V2.82952C14 2.23585 13.5156 1.75146 12.9219 1.75146ZM12.7654 2.54893L7.07384 7.41644L1.38228 2.54893H12.7654ZM13.2025 11.1705C13.2025 11.324 13.0755 11.451 12.9219 11.451H1.07806C0.924473 11.451 0.797468 11.324 0.797468 11.1705V3.0983L6.81392 8.24345C6.81688 8.2464 6.82279 8.24935 6.82574 8.25231C6.82869 8.25526 6.8346 8.25822 6.83755 8.26117C6.84641 8.26708 6.85232 8.27298 6.86118 8.27594C6.86414 8.27889 6.86709 8.27889 6.87004 8.28184C6.88186 8.28775 6.89367 8.29366 6.90549 8.29957C6.90844 8.29957 6.91139 8.30252 6.91435 8.30252C6.92321 8.30547 6.93207 8.31138 6.94388 8.31433C6.94684 8.31433 6.95274 8.31729 6.9557 8.31729C6.96456 8.32024 6.97342 8.32319 6.98228 8.32319C6.98523 8.32319 6.99114 8.32615 6.99409 8.32615C7.00295 8.3291 7.01477 8.3291 7.02363 8.33206C7.02658 8.33206 7.02954 8.33206 7.03249 8.33206C7.0443 8.33206 7.05907 8.33501 7.07089 8.33501C7.0827 8.33501 7.09747 8.33501 7.10928 8.33206C7.11224 8.33206 7.11519 8.33206 7.11814 8.33206C7.127 8.33206 7.13882 8.3291 7.14768 8.32615C7.15063 8.32615 7.15654 8.32319 7.15949 8.32319C7.16835 8.32024 7.17722 8.31729 7.18608 8.31729C7.18903 8.31729 7.19494 8.31433 7.19789 8.31433C7.20675 8.31138 7.21561 8.30843 7.22743 8.30252C7.23038 8.30252 7.23333 8.29957 7.23629 8.29957C7.2481 8.29366 7.25992 8.28775 7.27173 8.28184C7.27468 8.27889 7.27764 8.27889 7.28059 8.27594C7.28945 8.27003 7.29536 8.26708 7.30422 8.26117C7.30717 8.25822 7.31308 8.25526 7.31603 8.25231C7.31899 8.24935 7.32489 8.2464 7.32785 8.24345L13.2025 3.2253V11.1705Z" fill="white"/>
</svg>
