<svg width="12" height="12" viewBox="0 0 12 12" fill="none" xmlns="http://www.w3.org/2000/svg">
<g clip-path="url(#clip0_1_194)">
<path d="M11.4906 10.0368L8.13542 6.57118C8.50741 5.89921 8.69462 5.14321 8.69462 4.38959C8.69462 3.26638 8.28182 2.14317 7.45383 1.28878C6.64981 0.458403 5.57942 0 4.4394 0C3.3018 0 2.23141 0.458403 1.42741 1.2888C-0.228591 2.99759 -0.228591 5.7816 1.42741 7.49042C2.23141 8.32082 3.30183 8.77922 4.4394 8.77922C5.193 8.77922 5.91541 8.58003 6.5514 8.20324L9.89702 11.6592C10.1082 11.88 10.3914 12 10.6938 12C10.9962 12 11.277 11.88 11.4906 11.6592C11.9226 11.2128 11.9226 10.4832 11.4906 10.0368ZM4.43996 7.9539C2.5429 7.9539 0.999427 6.35495 0.999427 4.38954C0.999427 2.42422 2.5429 0.825272 4.43996 0.825272C6.33712 0.825272 7.88062 2.42422 7.88062 4.38954C7.8806 6.35495 6.33712 7.9539 4.43996 7.9539Z" fill="white"/>
</g>
<defs>
<clipPath id="clip0_1_194">
<rect width="12" height="12" fill="white"/>
</clipPath>
</defs>
</svg>
