<svg width="12" height="12" viewBox="0 0 12 12" fill="none" xmlns="http://www.w3.org/2000/svg">
<path d="M10.0134 4.0211H8.5599C8.50298 3.84825 8.43341 3.68109 8.35208 3.52085L9.38035 2.49258C9.48665 2.38627 9.48665 2.21394 9.38035 2.10765L8.17835 0.905652C8.07205 0.799342 7.89971 0.799342 7.79342 0.905652L6.76516 1.93392C6.60492 1.85259 6.43779 1.78302 6.26494 1.72611V0.272571C6.26496 0.122229 6.1431 0.000366211 5.99276 0.000366211H4.29291C4.14259 0.000366211 4.02071 0.122229 4.02071 0.272549V1.72611C3.84785 1.783 3.68073 1.85259 3.52047 1.93392L2.49222 0.905674C2.38591 0.799364 2.21358 0.799364 2.10729 0.905674L0.905302 2.10767C0.798993 2.21396 0.798993 2.38632 0.905302 2.49261L1.93354 3.52085C1.85221 3.68109 1.78262 3.84825 1.72573 4.0211H0.272203C0.121862 4.0211 0 4.14298 0 4.2933V5.99317C0 6.14349 0.121862 6.26535 0.272203 6.26535H1.72575C1.78266 6.4382 1.85224 6.60533 1.93357 6.76559L0.905325 7.79384C0.799015 7.90013 0.799015 8.07249 0.905325 8.17877L2.10732 9.38077C2.21362 9.48706 2.38596 9.48706 2.49225 9.38077L3.52049 8.35252C3.68073 8.43386 3.84785 8.50345 4.02073 8.56034V10.0139C4.02073 10.1642 4.14259 10.2861 4.29293 10.2861H5.99278C6.1431 10.2861 6.26499 10.1642 6.26499 10.0139V8.56034C6.43784 8.50345 6.60497 8.43386 6.7652 8.35252L7.79347 9.38077C7.89978 9.48706 8.07211 9.48706 8.1784 9.38077L9.38039 8.17877C9.4867 8.07246 9.4867 7.90013 9.38039 7.79384L8.35215 6.76559C8.43348 6.60535 8.50305 6.43822 8.55997 6.26537H10.0135C10.1638 6.26537 10.2857 6.14351 10.2857 5.99319V4.29333C10.2856 4.14298 10.1638 4.0211 10.0134 4.0211ZM5.14282 6.49837C4.39439 6.49837 3.78766 5.89164 3.78766 5.1432C3.78766 4.39477 4.39439 3.78803 5.14282 3.78803C5.89125 3.78803 6.49798 4.39477 6.49798 5.1432C6.49798 5.89164 5.89125 6.49837 5.14282 6.49837Z" fill="white"/>
</svg>
