<svg width="120" height="140" viewBox="0 0 120 140" fill="none" xmlns="http://www.w3.org/2000/svg">
<g clip-path="url(#clip0_29_152)">
<path d="M60 89V84.921V81.5V79.5V75.6891V0L56.5414 4.18797C45.3247 17.7697 30.7493 25.25 15.4999 25.2505C12.5869 25.2505 9.64323 24.9678 6.75068 24.41L0.937012 23.2888L1.16827 30.1583C1.85533 50.5675 5.24377 68.9925 11.2395 84.921C16.0844 97.7922 22.6274 109.061 30.6869 118.414C44.5281 134.477 58.0558 139.322 58.6247 139.521L60 140V91.538V89Z" fill="#51ABFF"/>
<path d="M113.25 24.41C110.358 24.9676 107.414 25.2505 104.5 25.2505C89.2518 25.2511 74.6765 17.7709 63.4588 4.18797L60 0V75.6894V81.5V84V86.5V91.538V140L61.3753 139.521C61.9442 139.323 75.4718 134.478 89.3131 118.415C97.3728 109.061 103.916 97.7925 108.76 84.9212C114.756 68.9928 118.145 50.568 118.832 30.1585L119.063 23.2891L113.25 24.41Z" fill="#00656B"/>
</g>
<defs>
<clipPath id="clip0_29_152">
<rect width="120" height="140" fill="white"/>
</clipPath>
</defs>
</svg>
