<svg width="12" height="12" viewBox="0 0 12 12" fill="none" xmlns="http://www.w3.org/2000/svg">
<path d="M11.7431 9.84751C11.6401 9.84751 11.5457 9.78858 11.5052 9.69187C11.4755 9.62169 10.7332 7.95683 7.95816 7.62709C7.38012 7.55692 6.68781 7.52093 5.84705 7.51463V9.58975C5.84705 9.68557 5.79532 9.77239 5.7103 9.81827C5.62573 9.86236 5.52452 9.85606 5.44579 9.80343L0.11426 6.21459C0.0422852 6.16645 0 6.08548 0 6.00046C0 5.91454 0.0422852 5.83627 0.11426 5.78589L5.44804 2.19659C5.52677 2.14216 5.62708 2.13856 5.71255 2.18355C5.79802 2.22943 5.84885 2.31625 5.84885 2.40937V4.34054C7.00855 4.49169 12 5.38867 12 9.592C12 9.71391 11.9141 9.82052 11.7935 9.84481C11.7769 9.84751 11.7593 9.84751 11.7431 9.84751Z" fill="white"/>
</svg>
