<svg width="12" height="12" viewBox="0 0 12 12" fill="none" xmlns="http://www.w3.org/2000/svg">
<g clip-path="url(#clip0_2_315)">
<path d="M8.0229 0.351325C9.2655 0.796335 10.3267 1.63864 11.0421 2.74779C11.7575 3.85694 12.0872 5.17103 11.9802 6.48654C11.8732 7.80202 11.3354 9.04553 10.4501 10.0245C9.56475 11.0034 8.3814 11.6631 7.08322 11.9014C5.78506 12.1397 4.44454 11.9433 3.26929 11.3426C2.09404 10.742 1.14965 9.77055 0.582381 8.5788C0.404353 8.20477 0.563222 7.75725 0.937222 7.57927C1.31123 7.40122 1.75874 7.56008 1.93677 7.9341C2.36222 8.82788 3.07051 9.5565 3.95195 10.007C4.83339 10.4575 5.83878 10.6048 6.81241 10.4261C7.78605 10.2473 8.67352 9.75255 9.3375 9.01838C10.0015 8.2842 10.4048 7.35154 10.4851 6.3649C10.5654 5.37827 10.318 4.3927 9.7815 3.56084C9.24495 2.72898 8.44912 2.09725 7.51717 1.7635C6.58524 1.42974 5.56926 1.41258 4.6266 1.71468C4.00983 1.91234 3.44697 2.23945 2.97344 2.66978L3.52334 3.21968C3.99582 3.69215 3.66119 4.50002 2.99302 4.50002H0V1.507C0 0.838815 0.807855 0.504194 1.28033 0.976665L1.91187 1.60821C2.55403 1.01048 3.32345 0.557162 4.16882 0.286242C5.42571 -0.116558 6.78034 -0.0936831 8.0229 0.351325ZM6 3C6.41422 3 6.75 3.33579 6.75 3.75V5.68934L8.03032 6.96967C8.3232 7.26256 8.3232 7.73745 8.03032 8.03032C7.73745 8.3232 7.26256 8.3232 6.96967 8.03032L5.25 6.31066V3.75C5.25 3.33579 5.58579 3 6 3Z" fill="white"/>
</g>
<defs>
<clipPath id="clip0_2_315">
<rect width="12" height="12" fill="white"/>
</clipPath>
</defs>
</svg>
