<svg width="14" height="14" viewBox="0 0 14 14" fill="none" xmlns="http://www.w3.org/2000/svg">
<path d="M11.2033 10.0074L8.97423 8.89303C8.764 8.7878 8.63333 8.5764 8.63333 8.3412V7.5523C8.68676 7.48697 8.743 7.41253 8.8011 7.3304C9.0902 6.92207 9.3219 6.46753 9.49036 5.9773C9.8196 5.82633 10.0333 5.50083 10.0333 5.13333V4.2C10.0333 3.9753 9.94933 3.7576 9.8 3.5875V2.3464C9.81306 2.21807 9.8644 1.45413 9.31186 0.8239C8.8326 0.2772 8.0549 0 7 0C5.9451 0 5.1674 0.2772 4.68813 0.823667C4.1356 1.4539 4.18693 2.21807 4.2 2.3464V3.5875C4.05066 3.7576 3.96666 3.9753 3.96666 4.2V5.13333C3.96666 5.4173 4.0957 5.68213 4.31596 5.85877C4.5297 6.70507 4.977 7.34277 5.13333 7.5474V8.3195C5.13333 8.54537 5.01013 8.75257 4.81203 8.86083L2.73046 9.99623C2.05356 10.3656 1.63333 11.0735 1.63333 11.8445V12.6C1.63333 13.7074 5.14383 14 7 14C8.85616 14 12.3667 13.7074 12.3667 12.6V11.89C12.3667 11.0878 11.9208 10.3663 11.2033 10.0074Z" fill="white"/>
</svg>
