<?xml version="1.0" encoding="UTF-8"?>
<svg width="39px" height="24px" viewBox="0 0 39 24" version="1.1" xmlns="http://www.w3.org/2000/svg" xmlns:xlink="http://www.w3.org/1999/xlink">
    <title>Group</title>
    <g id="TIME-Pieces" stroke="none" stroke-width="1" fill="none" fill-rule="evenodd">
        <g id="Desktop-Connect-Landing-Page-FAQs" transform="translate(-810.000000, -331.000000)" fill="#FFFFFF" fill-rule="nonzero">
            <g id="Group-4" transform="translate(324.000000, 119.000000)">
                <g id="Group-6" transform="translate(243.000000, 127.000000)">
                    <g id="WalletConnect-Button" transform="translate(0.000000, 67.000000)">
                        <g id="Shape" transform="translate(243.000000, 18.000000)">
                            <path d="M7.98876938,4.69012994 C14.3468839,-1.56337665 24.6531161,-1.56337665 31.0194559,4.69012994 L31.7844037,5.44187247 C32.1051882,5.75578694 32.1051882,6.25970226 31.7844037,6.57361673 L29.1687757,9.15101971 C29.012496,9.30797694 28.7492882,9.30797694 28.5930085,9.15101971 L27.5401772,8.11840633 C23.10677,3.75664745 15.9096805,3.75664745 11.4762733,8.11840633 L10.3494147,9.22536787 C10.1931351,9.3823251 9.92992724,9.3823251 9.77364758,9.22536787 L7.14979437,6.64796489 C6.82900981,6.33405043 6.82900981,5.8301351 7.14979437,5.51622064 L7.98876938,4.69012994 Z M36.4316672,10.010154 L38.7594116,12.2984253 C39.0801961,12.6123397 39.0801961,13.1162551 38.7594116,13.4301695 L28.2557735,23.7645642 C27.9349889,24.0784786 27.4250237,24.0784786 27.1042392,23.7645642 L19.6439418,16.4288788 C19.5616893,16.3545306 19.4383107,16.3545306 19.3560582,16.4288788 L11.9039861,23.7645642 C11.5832015,24.0784786 11.0732363,24.0784786 10.7524518,23.7645642 L0.240588421,13.4384304 C-0.0801961405,13.124516 -0.0801961405,12.6206006 0.240588421,12.3066862 L2.56833281,10.0184149 C2.88911737,9.70450047 3.39908257,9.70450047 3.71986713,10.0184149 L11.1801645,17.3541003 C11.262417,17.4284485 11.3857956,17.4284485 11.4680481,17.3541003 L18.9201202,10.0184149 C19.2409048,9.70450047 19.75087,9.70450047 20.0716545,10.0184149 L27.5319519,17.3541003 C27.6142044,17.4284485 27.737583,17.4284485 27.8198355,17.3541003 L35.2801329,10.0184149 C35.5926922,9.69623957 36.1108826,9.69623957 36.4316672,10.010154 Z"></path>
                        </g>
                    </g>
                </g>
            </g>
        </g>
    </g>
</svg>