<svg width="16" height="16" viewBox="0 0 16 16" fill="none" xmlns="http://www.w3.org/2000/svg">
<path d="M0.973631 13.8994H13.9521C14.4893 13.8994 14.9258 13.4629 14.9258 12.9257V10.7286H10.2669C9.91805 10.7286 9.57728 10.6604 9.25761 10.5241C8.94929 10.3943 8.6718 10.2061 8.43489 9.96916C8.19797 9.73224 8.00974 9.45474 7.87992 9.14643C7.74523 8.82675 7.67546 8.48598 7.67546 8.1371V7.86286C7.67546 7.51397 7.74361 7.1732 7.87992 6.85353C8.00974 6.54521 8.19799 6.26773 8.43489 6.03081C8.67182 5.79389 8.94929 5.60566 9.25761 5.47584C9.57728 5.34115 9.91805 5.27138 10.2669 5.27138H14.9258V3.07422C14.9258 2.5371 14.4893 2.10059 13.9521 2.10059H0.973631C0.436511 2.10059 0 2.5371 0 3.07422V12.9257C0 13.4628 0.436511 13.8994 0.973631 13.8994Z" fill="#FFB951"/>
<path d="M16 6.97522C16 6.57116 15.6739 6.245 15.2698 6.245H14.9258H10.267C9.37283 6.245 8.64911 6.96873 8.64911 7.86284V8.13708C8.64911 9.0312 9.37284 9.75492 10.267 9.75492H14.9258H15.2698C15.6739 9.75492 16 9.42875 16 9.02469V6.97522ZM10.5315 8.85919C10.056 8.85919 9.67142 8.47463 9.67142 7.99915C9.67142 7.5237 10.056 7.13911 10.5315 7.13911C11.0069 7.13911 11.3915 7.5237 11.3915 7.99915C11.3915 8.47463 11.0069 8.85919 10.5315 8.85919Z" fill="#FFB951"/>
</svg>
