<svg width="12" height="12" viewBox="0 0 12 12" fill="none" xmlns="http://www.w3.org/2000/svg">
<path d="M7.51759 9.36178L11.9176 6.16178C11.9694 6.12416 12 6.06416 12 5.99997C12 5.93596 11.9694 5.87596 11.9176 5.83836L7.51759 2.63837C7.48279 2.61296 7.4414 2.59998 7.39998 2.59998C7.36898 2.59998 7.33799 2.60738 7.30919 2.62198C7.24218 2.65599 7.19999 2.72478 7.19999 2.79999V4.79999L4.99998 4.79999C4.88938 4.79999 4.79999 4.88959 4.79999 4.99998L4.79999 6.99998C4.79999 7.11058 4.88938 7.19997 4.99998 7.19997H7.19999V9.19997C7.19999 9.27518 7.24218 9.34418 7.30919 9.37816C7.37598 9.41238 7.45658 9.40598 7.51759 9.36178Z" fill="white"/>
<path d="M4.39999 6.60005V5.40005C4.39999 5.06925 4.13079 4.80005 3.79999 4.80005C3.4692 4.80005 3.19999 5.06925 3.19999 5.40005V6.60005C3.19999 6.93085 3.4692 7.20005 3.79999 7.20005C4.13079 7.20005 4.39999 6.93085 4.39999 6.60005Z" fill="white"/>
<path d="M2.80002 6.60005L2.80002 5.40005C2.80002 5.06925 2.53082 4.80005 2.20002 4.80005C1.86922 4.80005 1.60002 5.06925 1.60002 5.40005L1.60002 6.60005C1.60002 6.93085 1.86922 7.20005 2.20002 7.20005C2.53082 7.20005 2.80002 6.93085 2.80002 6.60005Z" fill="white"/>
<path d="M1.20001 6.60005L1.20001 5.40005C1.20001 5.06925 0.930809 4.80005 0.600012 4.80005C0.269214 4.80005 1.0252e-05 5.06925 1.0252e-05 5.40005L1.0252e-05 6.60005C1.0252e-05 6.93085 0.269214 7.20005 0.600012 7.20005C0.930809 7.20005 1.20001 6.93085 1.20001 6.60005Z" fill="white"/>
</svg>
