<svg width="47" height="47" viewBox="0 0 47 47" fill="none" xmlns="http://www.w3.org/2000/svg">
<path fill-rule="evenodd" clip-rule="evenodd" d="M36.9282 28.4132C38.6792 31.7894 37.8197 35.9311 34.8697 38.3316C31.9198 40.7321 27.6899 40.7321 24.74 38.3316C21.7901 35.9311 20.9305 31.7894 22.6815 28.4132L16.9269 22.6586C14.7302 23.2441 12.3879 22.8597 10.4936 21.6028L3.43902 28.6586L0 25.2195L7.42485 17.7947C6.0147 14.1564 7.42617 10.0311 10.7695 8.0192C14.1129 6.00732 18.4189 6.69213 20.9731 9.64194C23.5274 12.5918 23.5895 16.9514 21.1202 19.9727L26.1217 24.9742C28.4311 23.773 31.181 23.773 33.4904 24.9742L43.561 14.9025L47 18.3415L36.9282 28.4132Z" fill="#FFC033"/>
<path fill-rule="evenodd" clip-rule="evenodd" d="M14.9024 11.4634C16.8018 11.4634 18.3415 13.0031 18.3415 14.9024C18.3415 16.8017 16.8018 18.3414 14.9024 18.3414C13.0031 18.3414 11.4634 16.8017 11.4634 14.9024C11.4634 13.0031 13.0031 11.4634 14.9024 11.4634ZM29.8049 28.6585C31.7042 28.6585 33.2439 30.1982 33.2439 32.0975C33.2439 33.9968 31.7042 35.5366 29.8049 35.5366C27.9056 35.5366 26.3659 33.9968 26.3659 32.0975C26.3659 30.1982 27.9056 28.6585 29.8049 28.6585Z" fill="#001D1F"/>
</svg>
